<svg width="1080" height="1350" viewBox="0 0 1080 1350" xmlns="http://www.w3.org/2000/svg">
<rect width="1080" height="1350" fill="#221C15"/>

<circle cx="116" cy="110" r="38" fill="#2C2419" stroke="#C75D49" stroke-width="3.5"/>
  <rect x="108.18" y="93.6" width="15.64" height="9.399999999999999" rx="3" fill="#F3EDE1" stroke="#C75D49" stroke-width="2"/>
  <rect x="93" y="97" width="46" height="30" rx="6" fill="#F3EDE1" stroke="#C75D49" stroke-width="2.5"/>
  <rect x="108.18" y="124" width="15.64" height="8.399999999999999" rx="3" fill="#221C15" stroke="#C75D49" stroke-width="2"/>
  <circle cx="107.26" cy="112.6" r="5.1000000000000005" fill="#221C15"/>
  <circle cx="124.74" cy="112.6" r="5.1000000000000005" fill="#221C15"/>
<text x="172" y="123" font-family="Helvetica Neue, Arial, sans-serif" font-size="40" font-weight="800" letter-spacing="4" fill="#F3EDE1">TERRABLOCK</text>

<rect x="700" y="84" width="300" height="48" rx="24" fill="none" stroke="#C75D49" stroke-width="2.5"/>
<text x="850" y="114" font-family="Helvetica Neue, Arial, sans-serif" font-size="18" font-weight="700" letter-spacing="2" fill="#C75D49" text-anchor="middle">INVESTOR OPPORTUNITY</text>

<text x="80" y="212" font-family="Helvetica Neue, Arial, sans-serif" font-size="30" font-weight="700" fill="#E0A94A">Telangana's First Mud Brick Industries</text>
<rect x="80" y="236" width="920" height="2" fill="#3A3022"/>

<text x="82" y="312" font-family="Helvetica Neue, Arial, sans-serif" font-size="23" font-weight="700" letter-spacing="5" fill="#C75D49">WE MAPPED EVERY BRICK FACTORY IN TELANGANA</text>

<text x="455" y="510" font-family="Helvetica Neue, Arial, sans-serif" font-size="205" font-weight="900" fill="#F3EDE1" text-anchor="end">355</text>
<text x="500" y="442" font-family="Helvetica Neue, Arial, sans-serif" font-size="30" font-weight="800" letter-spacing="2" fill="#F3EDE1">BRICK FACTORIES</text>
<text x="500" y="484" font-family="Helvetica Neue, Arial, sans-serif" font-size="23" font-weight="500" fill="#B7A88F">surveyed across 33 districts</text>

<text x="455" y="735" font-family="Helvetica Neue, Arial, sans-serif" font-size="205" font-weight="900" fill="#C75D49" text-anchor="end">0</text>
<text x="500" y="667" font-family="Helvetica Neue, Arial, sans-serif" font-size="30" font-weight="800" letter-spacing="2" fill="#F3EDE1">MAKE THIS BRICK</text>
<text x="500" y="709" font-family="Helvetica Neue, Arial, sans-serif" font-size="23" font-weight="500" fill="#B7A88F">machine-made mud interlocking</text>
<rect x="950.54" y="551.92" width="46.92" height="14.08" rx="3" fill="#2C2419" stroke="#B7A88F" stroke-width="2"/>
  <rect x="905" y="560" width="138" height="56" rx="6" fill="#2C2419" stroke="#B7A88F" stroke-width="2.5"/>
  <rect x="950.54" y="613" width="46.92" height="13.08" rx="3" fill="#221C15" stroke="#B7A88F" stroke-width="2"/>
  <circle cx="947.78" cy="589.12" r="9.520000000000001" fill="#221C15"/>
  <circle cx="1000.22" cy="589.12" r="9.520000000000001" fill="#221C15"/><rect x="935.54" y="614.92" width="46.92" height="14.08" rx="3" fill="#C75D49" stroke="#C75D49" stroke-width="2"/>
  <rect x="890" y="623" width="138" height="56" rx="6" fill="#C75D49" stroke="#C75D49" stroke-width="2.5"/>
  <rect x="935.54" y="676" width="46.92" height="13.08" rx="3" fill="#221C15" stroke="#C75D49" stroke-width="2"/>
  <circle cx="932.78" cy="652.12" r="9.520000000000001" fill="#7E3326"/>
  <circle cx="985.22" cy="652.12" r="9.520000000000001" fill="#7E3326"/><rect x="950.54" y="677.92" width="46.92" height="14.08" rx="3" fill="#2C2419" stroke="#B7A88F" stroke-width="2"/>
  <rect x="905" y="686" width="138" height="56" rx="6" fill="#2C2419" stroke="#B7A88F" stroke-width="2.5"/>
  <rect x="950.54" y="739" width="46.92" height="13.08" rx="3" fill="#221C15" stroke="#B7A88F" stroke-width="2"/>
  <circle cx="947.78" cy="715.12" r="9.520000000000001" fill="#221C15"/>
  <circle cx="1000.22" cy="715.12" r="9.520000000000001" fill="#221C15"/>

<rect x="80" y="810" width="920" height="2" fill="#3A3022"/>
<text x="80" y="878" font-family="Helvetica Neue, Arial, sans-serif" font-size="34" font-weight="800" fill="#F3EDE1">Telangana imports them from 3 states.</text>
<text x="80" y="926" font-family="Helvetica Neue, Arial, sans-serif" font-size="34" font-weight="800" fill="#E0A94A">We will make them here.</text>

<rect x="80" y="990" width="300" height="92" rx="14" fill="#2C2419" stroke="#3A3022" stroke-width="1.5"/>
  <circle cx="120" cy="1036" r="17" fill="#6FA86A"/>
  <text x="150" y="1030" font-family="Helvetica Neue, Arial, sans-serif" font-size="23" font-weight="800" fill="#F3EDE1">Low carbon</text>
  <text x="150" y="1060" font-family="Helvetica Neue, Arial, sans-serif" font-size="16" font-weight="500" fill="#B7A88F">13× less vs clay</text>
<rect x="390" y="990" width="300" height="92" rx="14" fill="#2C2419" stroke="#3A3022" stroke-width="1.5"/>
  <circle cx="430" cy="1036" r="17" fill="#C75D49"/>
  <text x="460" y="1030" font-family="Helvetica Neue, Arial, sans-serif" font-size="23" font-weight="800" fill="#F3EDE1">Cooler</text>
  <text x="460" y="1060" font-family="Helvetica Neue, Arial, sans-serif" font-size="16" font-weight="500" fill="#B7A88F">homes, less AC</text>
<rect x="700" y="990" width="300" height="92" rx="14" fill="#2C2419" stroke="#3A3022" stroke-width="1.5"/>
  <circle cx="740" cy="1036" r="17" fill="#E0A94A"/>
  <text x="770" y="1030" font-family="Helvetica Neue, Arial, sans-serif" font-size="23" font-weight="800" fill="#F3EDE1">Faster</text>
  <text x="770" y="1060" font-family="Helvetica Neue, Arial, sans-serif" font-size="16" font-weight="500" fill="#B7A88F">walls in days</text>

<rect x="80" y="1128" width="920" height="150" rx="18" fill="#C75D49"/>
<text x="120" y="1198" font-family="Helvetica Neue, Arial, sans-serif" font-size="46" font-weight="900" fill="#F3EDE1">Raising ₹75 lakh</text>
<text x="122" y="1240" font-family="Helvetica Neue, Arial, sans-serif" font-size="25" font-weight="500" fill="#F6E4DE">Seeking investors &amp; partners who build for the planet.</text>
<rect x="951.1" y="1162.8" width="23.8" height="11.2" rx="3" fill="#E89A86" stroke="#F6E4DE" stroke-width="2"/>
  <rect x="928" y="1168" width="70" height="40" rx="6" fill="#E89A86" stroke="#F6E4DE" stroke-width="2.5"/>
  <rect x="951.1" y="1205" width="23.8" height="10.2" rx="3" fill="#221C15" stroke="#F6E4DE" stroke-width="2"/>
  <circle cx="949.7" cy="1188.8" r="6.800000000000001" fill="#C75D49"/>
  <circle cx="976.3" cy="1188.8" r="6.800000000000001" fill="#C75D49"/>

<text x="80" y="1330" font-family="Helvetica Neue, Arial, sans-serif" font-size="22" font-weight="600" fill="#B7A88F">Srikanth Kunta  ·  Ranga Reddy, Telangana  ·  The future of building is grown, not burned.</text>
</svg>